<mxfile host="app.diagrams.net" modified="2021-12-14T09:41:41.140Z" agent="5.0 (Windows NT 10.0; Win64; x64) AppleWebKit/537.36 (KHTML, like Gecko) Chrome/96.0.4664.93 Safari/537.36" etag="5cm3ee1jNcpg5u_UtwTJ" version="15.9.6" type="github">
  <diagram id="TAYFjdAzOcSMueNQ5eI1" name="Page-1">
    <mxGraphModel dx="1422" dy="772" grid="1" gridSize="10" guides="1" tooltips="1" connect="1" arrows="1" fold="1" page="1" pageScale="1" pageWidth="827" pageHeight="1169" math="0" shadow="0">
      <root>
        <mxCell id="0" />
        <mxCell id="1" parent="0" />
        <mxCell id="lyz8aY12n6409Mo3j6r0-4" style="edgeStyle=orthogonalEdgeStyle;rounded=0;orthogonalLoop=1;jettySize=auto;html=1;entryX=0;entryY=0.5;entryDx=0;entryDy=0;" edge="1" parent="1" source="lyz8aY12n6409Mo3j6r0-1" target="lyz8aY12n6409Mo3j6r0-2">
          <mxGeometry relative="1" as="geometry" />
        </mxCell>
        <mxCell id="lyz8aY12n6409Mo3j6r0-1" value="" style="ellipse;whiteSpace=wrap;html=1;aspect=fixed;" vertex="1" parent="1">
          <mxGeometry x="60" y="110" width="70" height="70" as="geometry" />
        </mxCell>
        <mxCell id="lyz8aY12n6409Mo3j6r0-5" style="edgeStyle=orthogonalEdgeStyle;rounded=0;orthogonalLoop=1;jettySize=auto;html=1;exitX=1;exitY=0.5;exitDx=0;exitDy=0;" edge="1" parent="1" source="lyz8aY12n6409Mo3j6r0-2" target="lyz8aY12n6409Mo3j6r0-3">
          <mxGeometry relative="1" as="geometry" />
        </mxCell>
        <mxCell id="lyz8aY12n6409Mo3j6r0-2" value="" style="whiteSpace=wrap;html=1;aspect=fixed;" vertex="1" parent="1">
          <mxGeometry x="190" y="105" width="80" height="80" as="geometry" />
        </mxCell>
        <mxCell id="lyz8aY12n6409Mo3j6r0-3" value="" style="ellipse;whiteSpace=wrap;html=1;aspect=fixed;" vertex="1" parent="1">
          <mxGeometry x="300" y="105" width="80" height="80" as="geometry" />
        </mxCell>
      </root>
    </mxGraphModel>
  </diagram>
</mxfile>
